<svg width="148" height="76" viewBox="0 0 148 76" fill="none" xmlns="http://www.w3.org/2000/svg">
<rect width="148" height="76" rx="15" fill="#9820BF" fill-opacity="0.8"/>
<g clip-path="url(#clip0_11_43)">
<path d="M90.6185 44.2277V55.421H56.3799V44.2277H49.7993V58.7113C49.7993 60.5273 51.2704 62 53.0945 62H93.9039C95.7264 62 97.1991 60.5289 97.1991 58.7113V44.2277H90.6185Z" fill="black"/>
<path d="M72.8967 43.1179L63.4753 31.7334C63.4753 31.7334 62.0418 30.38 63.5962 30.38C65.1507 30.38 68.9052 30.38 68.9052 30.38C68.9052 30.38 68.9052 29.4695 68.9052 28.0655C68.9052 24.0625 68.9052 16.7774 68.9052 13.8075C68.9052 13.8075 68.6943 13 69.9104 13C71.1363 13 76.5058 13 77.3835 13C78.2596 13 78.24 13.68 78.24 13.68C78.24 16.56 78.24 24.0968 78.24 27.969C78.24 29.2244 78.24 30.0384 78.24 30.0384C78.24 30.0384 81.2508 30.0384 83.1403 30.0384C85.0266 30.0384 83.6062 31.4555 83.6062 31.4555C83.6062 31.4555 75.5904 42.0963 74.4724 43.2127C73.6682 44.0218 72.8967 43.1179 72.8967 43.1179Z" fill="black"/>
</g>
<defs>
<clipPath id="clip0_11_43">
<rect width="49" height="49" fill="white" transform="translate(49 13)"/>
</clipPath>
</defs>
</svg>
