<svg width="48" height="48" viewBox="0 0 48 48" fill="none" xmlns="http://www.w3.org/2000/svg">
<path d="M44 36H4C1.794 36 0 34.206 0 32V8C0 5.794 1.794 4 4 4H44C46.206 4 48 5.794 48 8V32C48 34.206 46.206 36 44 36ZM4 6C2.897 6 2 6.897 2 8V32C2 33.103 2.897 34 4 34H44C45.103 34 46 33.103 46 32V8C46 6.897 45.103 6 44 6H4Z" fill="#202020"/>
<path d="M23.9999 25.191L6.45692 13.84C5.99292 13.539 5.85992 12.921 6.15992 12.457C6.45992 11.993 7.07892 11.861 7.54292 12.16L23.9999 22.809L40.4569 12.16C40.9209 11.861 41.5399 11.993 41.8399 12.457C42.1399 12.921 42.0069 13.539 41.5429 13.84L23.9999 25.191Z" fill="#202020"/>
<path d="M6.00108 30C5.67808 30 5.36008 29.844 5.16808 29.555C4.86108 29.095 4.98508 28.475 5.44508 28.168L14.4451 22.168C14.9051 21.861 15.5261 21.985 15.8321 22.445C16.1391 22.905 16.0151 23.525 15.5551 23.832L6.55508 29.832C6.38408 29.945 6.19108 30 6.00108 30Z" fill="#202020"/>
<path d="M41.9991 30C41.8091 30 41.6161 29.945 41.4451 29.832L32.4451 23.832C31.9851 23.525 31.8611 22.905 32.1681 22.445C32.4741 21.985 33.0941 21.861 33.5551 22.168L42.5551 28.168C43.0151 28.475 43.1391 29.095 42.8321 29.555C42.6401 29.844 42.3221 30 41.9991 30Z" fill="#202020"/>
</svg>
