<svg width="52" height="52" viewBox="0 0 52 52" fill="none" xmlns="http://www.w3.org/2000/svg">
<path d="M25.9998 51.7389L25.1083 50.4487C24.4377 49.4769 8.6665 26.5406 8.6665 17.3333C8.6665 7.77617 16.4427 0 25.9998 0C35.557 0 43.3332 7.77617 43.3332 17.3333C43.3332 26.5406 27.562 49.4769 26.8914 50.4487L25.9998 51.7389ZM25.9998 2.16667C17.6365 2.16667 10.8332 8.97 10.8332 17.3333C10.8332 24.6859 22.6253 42.8512 25.9998 47.8985C29.3744 42.8512 41.1665 24.6859 41.1665 17.3333C41.1665 8.97 34.3632 2.16667 25.9998 2.16667Z" fill="#202020"/>
<path d="M25.9998 24.9167C21.8193 24.9167 18.4165 21.515 18.4165 17.3333C18.4165 13.1517 21.8193 9.75 25.9998 9.75C30.1804 9.75 33.5832 13.1517 33.5832 17.3333C33.5832 21.515 30.1804 24.9167 25.9998 24.9167ZM25.9998 11.9167C23.0131 11.9167 20.5832 14.3466 20.5832 17.3333C20.5832 20.3201 23.0131 22.75 25.9998 22.75C28.9866 22.75 31.4165 20.3201 31.4165 17.3333C31.4165 14.3466 28.9866 11.9167 25.9998 11.9167Z" fill="#202020"/>
</svg>
