<svg width="20" height="20" viewBox="0 0 20 20" fill="none" xmlns="http://www.w3.org/2000/svg">
<path d="M10 19.8996L9.65709 19.4033C9.39917 19.0296 3.33334 10.2079 3.33334 6.66667C3.33334 2.99083 6.32417 0 10 0C13.6758 0 16.6667 2.99083 16.6667 6.66667C16.6667 10.2079 10.6008 19.0296 10.3429 19.4033L10 19.8996ZM10 0.833333C6.78334 0.833333 4.16667 3.45 4.16667 6.66667C4.16667 9.49458 8.70209 16.4813 10 18.4225C11.2979 16.4813 15.8333 9.49458 15.8333 6.66667C15.8333 3.45 13.2167 0.833333 10 0.833333Z" fill="white" fill-opacity="0.8"/>
<path d="M10 9.58333C8.39209 9.58333 7.08334 8.275 7.08334 6.66667C7.08334 5.05833 8.39209 3.75 10 3.75C11.6079 3.75 12.9167 5.05833 12.9167 6.66667C12.9167 8.275 11.6079 9.58333 10 9.58333ZM10 4.58333C8.85125 4.58333 7.91667 5.51792 7.91667 6.66667C7.91667 7.81542 8.85125 8.75 10 8.75C11.1488 8.75 12.0833 7.81542 12.0833 6.66667C12.0833 5.51792 11.1488 4.58333 10 4.58333Z" fill="white" fill-opacity="0.8"/>
</svg>
