<svg width="21" height="21" viewBox="0 0 21 21" fill="none" xmlns="http://www.w3.org/2000/svg">
<path d="M19.25 17.5H1.75C0.784875 17.5 0 16.7151 0 15.75V5.25C0 4.28487 0.784875 3.5 1.75 3.5H19.25C20.2151 3.5 21 4.28487 21 5.25V15.75C21 16.7151 20.2151 17.5 19.25 17.5ZM1.75 4.375C1.26744 4.375 0.875 4.76744 0.875 5.25V15.75C0.875 16.2326 1.26744 16.625 1.75 16.625H19.25C19.7326 16.625 20.125 16.2326 20.125 15.75V5.25C20.125 4.76744 19.7326 4.375 19.25 4.375H1.75Z" fill="white" fill-opacity="0.8"/>
<path d="M10.5 12.771L2.82493 7.80499C2.62193 7.6733 2.56375 7.40292 2.695 7.19992C2.82625 6.99692 3.09706 6.93917 3.30006 7.06999L10.5 11.7289L17.6999 7.06999C17.9029 6.93917 18.1737 6.99692 18.305 7.19992C18.4362 7.40292 18.3781 7.6733 18.1751 7.80499L10.5 12.771Z" fill="white" fill-opacity="0.8"/>
<path d="M2.62544 14.875C2.48412 14.875 2.345 14.8068 2.261 14.6803C2.12669 14.4791 2.18094 14.2078 2.38219 14.0735L6.31969 11.4485C6.52094 11.3142 6.79262 11.3684 6.9265 11.5697C7.06081 11.7709 7.00656 12.0422 6.80531 12.1765L2.86781 14.8015C2.793 14.8509 2.70856 14.875 2.62544 14.875Z" fill="white" fill-opacity="0.8"/>
<path d="M18.3746 14.875C18.2914 14.875 18.207 14.8509 18.1322 14.8015L14.1947 12.1765C13.9934 12.0422 13.9392 11.7709 14.0735 11.5697C14.2074 11.3684 14.4786 11.3142 14.6803 11.4485L18.6178 14.0735C18.8191 14.2078 18.8733 14.4791 18.739 14.6803C18.655 14.8068 18.5159 14.875 18.3746 14.875Z" fill="white" fill-opacity="0.8"/>
</svg>
