<svg width="30" height="30" viewBox="0 0 30 30" fill="none" xmlns="http://www.w3.org/2000/svg">
<circle cx="15" cy="15" r="15" fill="#E09FF5"/>
<path d="M24.1354 8.87498L16.2708 5.6979C16.1146 5.59373 15.9583 5.48956 15.75 5.48956C15.3333 5.48956 14.9687 5.85415 14.9687 6.27081L14.8646 19.5C14.0312 18.875 14.0833 18.875 12.8333 18.875C10.1771 18.875 7.98958 20.5416 7.98958 22.5729C7.98958 24.6041 10.125 26.2708 12.8333 26.2708C15.2292 26.2708 17.2083 24.9687 17.5729 23.1979C17.625 23.0937 17.625 11.7916 17.625 11.7916L25.2292 14.6562C25.5937 14.7604 25.9583 14.5521 25.9583 14.1875V11.5833C25.9583 10.3854 25.2292 9.29165 24.1354 8.87498Z" fill="#F48FB1"/>
<path d="M14.7604 20.75C14.7604 22.625 12.7813 24.1354 10.3333 24.1354C7.88542 24.1354 5.90625 22.625 5.90625 20.75C5.90625 18.875 7.88542 17.3646 10.3333 17.3646C10.6458 17.3646 11.0104 17.4166 11.3229 17.4687" stroke="#18193F" stroke-width="3" stroke-miterlimit="10" stroke-linecap="round"/>
<path d="M14.7604 20.75V4.86456L21.4271 7.36456C22.4688 7.72915 23.0938 8.71873 23.0938 9.81248V13.1979L18.1458 11.3229" stroke="#18193F" stroke-width="3" stroke-miterlimit="10" stroke-linecap="round" stroke-linejoin="round"/>
</svg>
