<svg width="49" height="49" viewBox="0 0 49 49" fill="none" xmlns="http://www.w3.org/2000/svg">
<g clip-path="url(#clip0_12_500)">
<path d="M29.0386 0.0573978C28.1502 0.310053 27.6502 1.2288 27.9233 2.1131C28.0656 2.58013 28.4348 2.97443 28.8848 3.14287C29.0425 3.20411 29.2463 3.23091 29.6925 3.25771C30.5117 3.30748 31.2809 3.39169 31.9271 3.50654C36.7002 4.33724 40.8579 7.19302 43.3771 11.3619C44.7617 13.6549 45.5886 16.3997 45.7156 19.1023C45.7271 19.3856 45.7617 19.7225 45.7925 19.8488C45.9079 20.3082 46.2156 20.6719 46.6925 20.8977C46.9656 21.0279 47.004 21.0355 47.3656 21.0355C47.7232 21.0355 47.7694 21.024 48.0271 20.9054C48.4925 20.6872 48.8425 20.2584 48.9617 19.7569C49.0194 19.5196 48.9925 18.7769 48.9002 17.9003C48.4694 13.7583 46.854 10.0182 44.1425 6.87912C43.4925 6.12498 42.3386 5.01865 41.5386 4.37935C38.504 1.95997 34.854 0.474663 31.0079 0.0956783C30.0617 0.00380325 29.2886 -0.0115089 29.0386 0.0573978Z" fill="#202020"/>
<path d="M27.3962 6.01396C26.9885 6.09052 26.5808 6.36232 26.3539 6.69919C25.8615 7.42654 26.0462 8.43716 26.7577 8.92717C27.0731 9.14154 27.2692 9.19131 28.0192 9.24873C29.8808 9.3942 31.4615 9.8306 32.9923 10.623C34.1346 11.2164 35 11.8404 35.9385 12.7476C38.2115 14.9488 39.5192 17.8046 39.7154 21.0164C39.7462 21.5485 39.8346 21.8509 40.0385 22.1342C40.6269 22.9572 41.8308 23.0376 42.5308 22.3065C42.9269 21.8892 43.0192 21.537 42.9615 20.6833C42.6962 16.7825 41.1039 13.2721 38.3615 10.5541C35.6385 7.85146 32.1577 6.28576 28.25 6.01013C27.6462 5.96802 27.6192 5.96802 27.3962 6.01396Z" fill="#202020"/>
<path d="M8.72305 6.39677C7.9192 6.4963 7.13074 6.81404 6.28843 7.3806C4.03843 8.89271 2.22305 11.492 1.01535 14.9182C0.726891 15.7412 0.361506 17.0275 0.211506 17.7433C-0.338494 20.4077 0.196122 23.5812 1.79228 27.1299C3.35766 30.6173 6.19612 34.8168 9.39612 38.3808C10.5423 39.6594 13.3538 41.9792 15.8384 43.698C18.5384 45.5661 21.1654 46.9787 23.5961 47.8707C24.1577 48.0774 24.4115 48.1578 25.173 48.3913C25.4346 48.4679 26.2461 48.6554 26.7115 48.7473C27.6461 48.9234 28.2192 48.977 29.25 48.977C30.4346 48.9808 30.9115 48.9196 32.1115 48.621C35.1115 47.8669 37.5654 46.7299 39.5192 45.1833C40.0423 44.7699 40.9307 43.8933 41.3154 43.4109C41.923 42.6491 42.4269 41.784 42.6115 41.1715C42.8038 40.5513 42.8807 39.6632 42.8115 38.9129C42.5769 36.4629 41.2577 34.4186 39 33.0176C38.0807 32.4472 36.373 31.6701 35.3154 31.337C33.5884 30.7972 31.973 30.7436 30.6577 31.1839C29.5692 31.5437 28.7577 32.183 27.9538 33.3047C27.2154 34.3421 26.5654 34.9546 25.8 35.3374C25.2923 35.5939 24.9884 35.659 24.3654 35.6551C23.8961 35.6513 23.7807 35.6398 23.4807 35.5479C23 35.4025 22.4038 35.1115 21.9038 34.7785C19.8961 33.4386 15.1615 28.6497 14.1 26.8849C13.8538 26.4753 13.623 25.947 13.5115 25.5489C13.3807 25.0704 13.3654 24.366 13.4769 23.964C13.7577 22.9419 14.5654 21.9772 15.9192 21.0547C17.7577 19.8029 18.5269 17.7357 18.0923 15.2206C17.8654 13.8999 17.2615 12.2997 16.4077 10.757C15.45 9.02287 14.25 7.82467 12.75 7.10115C12.0615 6.77193 11.4961 6.58818 10.7307 6.44654C10.3346 6.37763 9.13458 6.34318 8.72305 6.39677ZM10.5307 9.04966C11.9307 9.35209 13.0769 10.2364 13.9307 11.6719C14.6846 12.9429 15.3269 14.543 15.523 15.6379C15.6192 16.1891 15.6115 16.993 15.5038 17.3988C15.3269 18.0764 14.973 18.5587 14.3423 18.9875C11.6 20.8556 10.3807 23.2979 10.9038 25.8628C11.073 26.6935 11.523 27.7156 12.0846 28.5578C13.3038 30.3838 17.0615 34.2655 19.5577 36.2753C20.85 37.3127 22.0538 37.9214 23.3154 38.174C23.9192 38.2927 24.9154 38.2927 25.4884 38.1702C27.2384 37.8027 28.8307 36.6313 30.1115 34.767C30.55 34.1315 31.0307 33.7679 31.673 33.5879C32.023 33.4922 32.9346 33.4731 33.4115 33.5497C34.4807 33.7296 35.7538 34.1966 37.0154 34.8819C37.8884 35.3527 38.3577 35.6934 38.8884 36.2408C39.7038 37.083 40.123 38.0209 40.2115 39.2191C40.2423 39.6364 40.1769 40.2872 40.0769 40.5398C39.7577 41.3437 38.7154 42.5458 37.6423 43.3497C36.023 44.5594 34.0346 45.4475 31.5154 46.0906C30.4654 46.3586 30.0269 46.4083 28.9423 46.3854C28.0384 46.3624 27.6961 46.3241 26.8384 46.1442C23.2654 45.4015 18.8192 42.9515 14.1 39.1272C12.4615 37.7989 11.7115 37.0983 10.7769 36.015C6.63458 31.203 3.80766 26.3183 2.92305 22.4366C2.69997 21.4528 2.64228 20.9322 2.63843 19.9254C2.63458 18.9186 2.65766 18.7233 2.8692 17.839C3.76151 14.1219 5.44997 11.1513 7.5192 9.66216C7.99228 9.32529 8.56535 9.04584 8.88458 8.9999C9.23458 8.9463 10.1961 8.97693 10.5307 9.04966Z" fill="#202020"/>
<path d="M25.223 12.2079C24.7576 12.3265 24.3845 12.6481 24.1653 13.1151C24.0653 13.3219 24.0576 13.3793 24.0576 13.7812C24.0576 14.187 24.0653 14.2406 24.1653 14.4397C24.3307 14.7765 24.6115 15.0598 24.9422 15.2206C25.1999 15.3469 25.2692 15.3622 25.8115 15.412C26.9499 15.5192 27.8768 15.768 28.7884 16.2083C29.6961 16.6447 30.2845 17.0543 30.9961 17.7433C31.7076 18.4324 32.1884 19.0755 32.6115 19.9062C33.1538 20.9704 33.3653 21.7514 33.5345 23.3133C33.6076 23.9717 33.9268 24.4387 34.4884 24.7029C34.9461 24.9134 35.5461 24.8866 35.9845 24.6301C36.2115 24.4962 36.5268 24.1516 36.6384 23.9104C36.7884 23.5851 36.8153 23.3439 36.7692 22.7888C36.4461 18.9301 34.2961 15.5651 30.9192 13.6358C29.5192 12.8319 27.8692 12.3227 26.1922 12.1734C25.6192 12.1236 25.5307 12.1275 25.223 12.2079Z" fill="#202020"/>
</g>
<defs>
<clipPath id="clip0_12_500">
<rect width="49" height="49" fill="white"/>
</clipPath>
</defs>
</svg>
