<svg width="21" height="21" viewBox="0 0 21 21" fill="none" xmlns="http://www.w3.org/2000/svg">
<g clip-path="url(#clip0_6_8)">
<path d="M12.4451 0.0246341C12.0643 0.132915 11.85 0.526665 11.967 0.90565C12.028 1.10581 12.1863 1.27479 12.3791 1.34698C12.4467 1.37323 12.5341 1.38471 12.7253 1.3962C13.0764 1.41752 13.406 1.45362 13.683 1.50284C15.7286 1.85885 17.5104 3.08276 18.5901 4.8694C19.1835 5.85213 19.5379 7.02846 19.5923 8.18674C19.5973 8.30815 19.6121 8.45252 19.6253 8.50667C19.6747 8.70354 19.8066 8.8594 20.011 8.9562C20.128 9.01198 20.1445 9.01526 20.2995 9.01526C20.4528 9.01526 20.4725 9.01034 20.583 8.95948C20.7824 8.86596 20.9324 8.68221 20.9835 8.46729C21.0082 8.36557 20.9967 8.04729 20.9571 7.67159C20.7725 5.89643 20.0802 4.29354 18.9181 2.94823C18.6396 2.62502 18.1451 2.15088 17.8022 1.8769C16.5017 0.840025 14.9374 0.203462 13.289 0.0410403C12.8835 0.00166532 12.5522 -0.00489718 12.4451 0.0246341Z" fill="white" fill-opacity="0.8"/>
<path d="M11.7412 2.57739C11.5665 2.61021 11.3918 2.72669 11.2945 2.87107C11.0835 3.18278 11.1626 3.61591 11.4676 3.82591C11.6027 3.91779 11.6868 3.93911 12.0082 3.96372C12.806 4.02607 13.4835 4.2131 14.1396 4.55271C14.6291 4.807 15 5.07443 15.4022 5.46325C16.3764 6.40661 16.9368 7.63052 17.0209 9.007C17.0341 9.23505 17.072 9.36466 17.1593 9.48607C17.4115 9.8388 17.9275 9.87325 18.2275 9.55989C18.3973 9.38107 18.4368 9.23013 18.4121 8.86427C18.2984 7.19247 17.6159 5.68802 16.4407 4.52318C15.2736 3.36489 13.7819 2.69388 12.1071 2.57575C11.8484 2.55771 11.8368 2.55771 11.7412 2.57739Z" fill="white" fill-opacity="0.8"/>
<path d="M3.73846 2.74149C3.39396 2.78415 3.05604 2.92032 2.69506 3.16313C1.73077 3.81118 0.952747 4.92516 0.435165 6.39352C0.311538 6.74626 0.154945 7.29751 0.0906592 7.6043C-0.145055 8.74618 0.0840658 10.1063 0.768132 11.6271C1.43901 13.1217 2.65549 14.9215 4.02692 16.4489C4.51813 16.9969 5.72308 17.9911 6.78791 18.7277C7.94506 19.5284 9.07088 20.1338 10.1126 20.516C10.3533 20.6046 10.4621 20.6391 10.7885 20.7391C10.9006 20.772 11.2484 20.8524 11.4478 20.8917C11.8484 20.9672 12.094 20.9902 12.5357 20.9902C13.0434 20.9918 13.2478 20.9656 13.7621 20.8376C15.0478 20.5144 16.0995 20.0271 16.9368 19.3643C17.161 19.1871 17.5418 18.8114 17.7066 18.6047C17.967 18.2782 18.183 17.9074 18.2621 17.6449C18.3445 17.3791 18.3775 16.9985 18.3478 16.677C18.2473 15.627 17.6819 14.7509 16.7143 14.1504C16.3203 13.9059 15.5885 13.5729 15.1352 13.4302C14.3951 13.1988 13.7027 13.1759 13.139 13.3645C12.6725 13.5188 12.3247 13.7927 11.9802 14.2734C11.6637 14.7181 11.3852 14.9806 11.0571 15.1446C10.8396 15.2545 10.7093 15.2824 10.4423 15.2808C10.2412 15.2791 10.1918 15.2742 10.0632 15.2349C9.85714 15.1725 9.60165 15.0478 9.38736 14.9051C8.52692 14.3309 6.4978 12.2784 6.04286 11.5221C5.93736 11.3466 5.83846 11.1202 5.79066 10.9495C5.73462 10.7445 5.72802 10.4426 5.77582 10.2703C5.89615 9.83227 6.24231 9.41884 6.82253 9.02344C7.61044 8.48696 7.94011 7.60102 7.75385 6.52313C7.65659 5.95712 7.3978 5.27134 7.03187 4.61016C6.62143 3.86696 6.10714 3.35344 5.46429 3.04337C5.16923 2.90227 4.92692 2.82352 4.5989 2.76282C4.42912 2.73329 3.91484 2.71852 3.73846 2.74149ZM4.51319 3.87844C5.11319 4.00805 5.6044 4.38704 5.97033 5.00227C6.29341 5.54696 6.56868 6.23274 6.65275 6.70196C6.69396 6.93821 6.69066 7.28274 6.64451 7.45665C6.56868 7.74704 6.41703 7.95376 6.1467 8.13751C4.97143 8.93813 4.4489 9.98485 4.67308 11.0841C4.74561 11.4401 4.93846 11.8781 5.17912 12.2391C5.70165 13.0216 7.31209 14.6852 8.38187 15.5466C8.93572 15.9912 9.45165 16.252 9.99231 16.3603C10.2511 16.4112 10.678 16.4112 10.9236 16.3587C11.6736 16.2012 12.356 15.6991 12.9049 14.9002C13.0929 14.6278 13.2989 14.472 13.5742 14.3949C13.7242 14.3538 14.1148 14.3456 14.3192 14.3784C14.7775 14.4556 15.3231 14.6557 15.8637 14.9494C16.2379 15.1512 16.439 15.2972 16.6665 15.5318C17.0159 15.8927 17.1956 16.2947 17.2335 16.8082C17.2467 16.987 17.2187 17.2659 17.1758 17.3742C17.039 17.7188 16.5923 18.2339 16.1324 18.5784C15.4385 19.0969 14.5863 19.4775 13.5066 19.7531C13.0566 19.868 12.8687 19.8893 12.4038 19.8795C12.0165 19.8696 11.8698 19.8532 11.5022 19.7761C9.97088 19.4578 8.06539 18.4078 6.04286 16.7688C5.34066 16.1995 5.01923 15.8993 4.61868 15.435C2.84341 13.3727 1.63187 11.2793 1.25275 9.61571C1.15714 9.19407 1.13242 8.97094 1.13077 8.53946C1.12912 8.10798 1.13901 8.0243 1.22967 7.64532C1.61209 6.05227 2.33571 4.77915 3.22253 4.14094C3.42528 3.99657 3.67088 3.8768 3.80769 3.85712C3.95769 3.83415 4.36978 3.84727 4.51319 3.87844Z" fill="white" fill-opacity="0.8"/>
<path d="M10.8099 5.23201C10.6104 5.28287 10.4505 5.42069 10.3566 5.62084C10.3137 5.70944 10.3104 5.73404 10.3104 5.90631C10.3104 6.08022 10.3137 6.10319 10.3566 6.1885C10.4275 6.33287 10.5478 6.45428 10.6896 6.52319C10.8 6.57733 10.8297 6.58389 11.0621 6.60522C11.55 6.65115 11.9473 6.7578 12.3379 6.94647C12.7269 7.1335 12.9791 7.30905 13.2841 7.60436C13.589 7.89967 13.7951 8.1753 13.9764 8.53131C14.2088 8.9874 14.2995 9.32209 14.372 9.99147C14.4033 10.2737 14.5401 10.4738 14.7808 10.587C14.9769 10.6772 15.2341 10.6658 15.422 10.5558C15.5192 10.4984 15.6544 10.3508 15.7022 10.2474C15.7665 10.108 15.778 10.0046 15.7582 9.7667C15.6198 8.11295 14.6984 6.67084 13.2511 5.84397C12.6511 5.49944 11.944 5.28123 11.2253 5.21725C10.9797 5.19592 10.9418 5.19756 10.8099 5.23201Z" fill="white" fill-opacity="0.8"/>
</g>
<defs>
<clipPath id="clip0_6_8">
<rect width="21" height="21" fill="white"/>
</clipPath>
</defs>
</svg>
