<svg width="50" height="50" viewBox="0 0 50 50" fill="none" xmlns="http://www.w3.org/2000/svg">
<path fill-rule="evenodd" clip-rule="evenodd" d="M29.1667 25C29.1667 27.301 27.3012 29.1667 25 29.1667C22.6987 29.1667 20.8333 27.301 20.8333 25C20.8333 22.699 22.6987 20.8333 25 20.8333C27.3012 20.8333 29.1667 22.699 29.1667 25ZM16.6667 25C16.6667 22.111 18.1385 19.5682 20.3714 18.0731L18.0556 14.6078C14.7063 16.8503 12.5 20.6665 12.5 25C12.5 29.3335 14.7063 33.1498 18.0556 35.3923L20.3714 31.9267C18.1385 30.4317 16.6667 27.889 16.6667 25ZM33.3333 25C33.3333 27.889 31.8615 30.4317 29.6285 31.9267L31.9444 35.3923C35.2937 33.1498 37.5 29.3335 37.5 25C37.5 20.6665 35.2937 16.8503 31.9444 14.6078L29.6285 18.0731C31.8615 19.5682 33.3333 22.111 33.3333 25ZM36.574 7.67979L34.2592 11.1438C38.7248 14.1337 41.6667 19.2223 41.6667 25C41.6667 30.7777 38.7248 35.8663 34.2592 38.8563L36.574 42.3202C42.1558 38.5829 45.8333 32.2223 45.8333 25C45.8333 17.7778 42.156 11.4172 36.574 7.67979ZM13.4261 42.3202L15.7408 38.8565C11.2751 35.8662 8.33333 30.7777 8.33333 25C8.33333 19.2223 11.2751 14.1337 15.7408 11.1435L13.4261 7.67979C7.84404 11.4172 4.16666 17.7775 4.16666 25C4.16666 32.2225 7.84404 38.5829 13.4261 42.3202Z" fill="#F0F0F0"/>
</svg>
