<svg width="23" height="23" viewBox="0 0 23 23" fill="none" xmlns="http://www.w3.org/2000/svg">
<g clip-path="url(#clip0_7_205)">
<path d="M10.8442 0.0197945C6.94855 0.249794 3.45722 2.41143 1.52019 5.79136C0.724178 7.17854 0.235428 8.6987 0.0647246 10.3141C-0.188635 12.6896 0.327068 15.1261 1.52019 17.2087C3.07808 19.9274 5.66558 21.8896 8.69332 22.6496C11.5827 23.3756 14.6284 22.9569 17.2087 21.4799C20.0909 19.8321 22.1214 17.0128 22.7754 13.7551C23.3199 11.04 22.8581 8.19557 21.4799 5.79136C19.7351 2.74386 16.6912 0.655888 13.234 0.134794C12.4362 0.0144043 11.6025 -0.0251274 10.8442 0.0197945ZM12.4344 0.997295C13.5 1.09792 14.4793 1.33511 15.4586 1.72683C15.8054 1.86698 16.4846 2.1994 16.8098 2.38987C18.3713 3.30628 19.6201 4.54612 20.5743 6.12737C20.9067 6.67542 21.311 7.57565 21.532 8.25667C22.3891 10.8855 22.1663 13.7569 20.9157 16.2348C20.3443 17.365 19.7171 18.2149 18.7756 19.1296C17.728 20.1466 16.33 20.9947 14.8943 21.4817C14.0929 21.753 13.3203 21.9183 12.4254 22.0046C11.9762 22.0495 11.0239 22.0495 10.5746 22.0046C9.6798 21.9183 8.90715 21.753 8.10574 21.4817C7.25043 21.1906 6.31605 20.727 5.5973 20.2382C4.45449 19.4584 3.48058 18.4791 2.73129 17.3578C2.21379 16.5834 1.75558 15.6346 1.46629 14.7398C0.612772 12.0966 0.833787 9.24495 2.08441 6.76526C2.2084 6.51729 2.37371 6.21003 2.45277 6.08245C3.52012 4.31792 5.01152 2.9469 6.83715 2.04847C8.16324 1.3962 9.49293 1.0512 11.0149 0.963154C11.2628 0.948778 12.1523 0.970341 12.4344 0.997295Z" fill="#C535CD"/>
<path d="M11.0509 6.35016V10.147L10.9575 10.1865C10.3861 10.4237 10.0285 11.0041 10.0698 11.6258L10.0806 11.7965L8.11844 12.9303C6.74383 13.7227 6.15446 14.0713 6.15625 14.0929C6.15805 14.1127 6.55157 14.8116 6.58571 14.8566C6.5875 14.8584 7.47696 14.348 8.56227 13.7209L10.5352 12.5817L10.6269 12.6536C10.7473 12.747 11.0114 12.8728 11.1677 12.9123C11.3348 12.9555 11.6601 12.9555 11.8326 12.9141C12.041 12.862 12.3052 12.7201 12.4597 12.5763C12.6196 12.4272 12.6987 12.323 12.7849 12.1505C13.1066 11.5 12.8909 10.713 12.2818 10.3159C12.2099 10.2691 12.1057 10.2116 12.05 10.1901L11.9494 10.1488V6.35016V2.55156H11.5002H11.0509V6.35016Z" fill="#C535CD"/>
</g>
<defs>
<clipPath id="clip0_7_205">
<rect width="23" height="23" fill="white"/>
</clipPath>
</defs>
</svg>
